<?xml version="1.0" encoding="UTF-8" standalone="no"?>
<svg width="328px" height="133px" viewBox="0 0 328 133" version="1.1" xmlns="http://www.w3.org/2000/svg" xmlns:xlink="http://www.w3.org/1999/xlink" xmlns:sketch="http://www.bohemiancoding.com/sketch/ns">
    <!-- Generator: bin/sketchtool 1.4 (305) - http://www.bohemiancoding.com/sketch -->
    <title>Icons</title>
    <desc>Created with bin/sketchtool.</desc>
    <defs></defs>
    <g id="Styleguide" stroke="none" stroke-width="1" fill="none" fill-rule="evenodd" sketch:type="MSPage">
        <g sketch:type="MSArtboardGroup" transform="translate(-159.000000, -623.000000)" id="UI_icons">
            <g sketch:type="MSLayerGroup" transform="translate(150.000000, 527.000000)">
                <g id="Icons" transform="translate(0.000000, 87.000000)" sketch:type="MSShapeGroup">
                    <g id="twitter" transform="translate(150.000000, 50.000000)" fill="#FFFFFF">
                        <rect id="bg" opacity="0" x="0" y="0" width="50" height="50"></rect>
                        <path d="M37.658968,17.3663147 C36.7513795,17.7678685 35.7775501,18.0401976 34.7543625,18.1617782 C35.7991066,17.5370988 36.5988321,16.5462696 36.9778636,15.3692476 C35.9978695,15.9477409 34.9161368,16.3678013 33.7635297,16.5955133 C32.8405494,15.6123685 31.527699,15 30.0715281,15 C27.2778881,15 25.0127648,17.261712 25.0127648,20.0496159 C25.0127648,20.4450142 25.0574492,20.8311994 25.1437557,21.2004872 C20.9402007,20.9896725 17.212782,18.9787656 14.7180721,15.923119 C14.2819864,16.6678099 14.0339055,17.5355297 14.0339055,18.4617868 C14.0339055,20.2142445 14.9276334,21.7605141 16.2836371,22.6651667 C15.4546189,22.6374872 14.6749188,22.4097751 13.9923236,22.0312742 L13.9923236,22.0943577 C13.9923236,24.5406935 15.7366261,26.5823777 18.049496,27.0470551 C17.6257398,27.1609112 17.1788961,27.2239947 16.7166202,27.2239947 C16.389969,27.2239947 16.0740758,27.1916885 15.7643474,27.1301338 C16.4084229,29.1379831 18.2760205,30.5980761 20.4887635,30.6381068 C18.7583217,31.9920683 16.5764023,32.7967448 14.2065185,32.7967448 C13.7981944,32.7967448 13.3959947,32.772123 13,32.7275059 C15.2389332,34.1630173 17.8969889,35 20.7538076,35 C30.0592792,35 35.1458041,27.3040157 35.1458041,20.6296782 L35.1288409,19.9757905 C36.1226957,19.2679922 36.9824973,18.3787081 37.658968,17.3663147 L37.658968,17.3663147 Z"></path>
                    </g>
                    <g id="twitter_" transform="translate(150.000000, 100.000000)">
                        <rect id="bg" opacity="0" fill="#FFFFFF" x="0" y="0" width="50" height="50"></rect>
                        <path d="M37.658968,17.3663147 C36.7513795,17.7678685 35.7775501,18.0401976 34.7543625,18.1617782 C35.7991066,17.5370988 36.5988321,16.5462696 36.9778636,15.3692476 C35.9978695,15.9477409 34.9161368,16.3678013 33.7635297,16.5955133 C32.8405494,15.6123685 31.527699,15 30.0715281,15 C27.2778881,15 25.0127648,17.261712 25.0127648,20.0496159 C25.0127648,20.4450142 25.0574492,20.8311994 25.1437557,21.2004872 C20.9402007,20.9896725 17.212782,18.9787656 14.7180721,15.923119 C14.2819864,16.6678099 14.0339055,17.5355297 14.0339055,18.4617868 C14.0339055,20.2142445 14.9276334,21.7605141 16.2836371,22.6651667 C15.4546189,22.6374872 14.6749188,22.4097751 13.9923236,22.0312742 L13.9923236,22.0943577 C13.9923236,24.5406935 15.7366261,26.5823777 18.049496,27.0470551 C17.6257398,27.1609112 17.1788961,27.2239947 16.7166202,27.2239947 C16.389969,27.2239947 16.0740758,27.1916885 15.7643474,27.1301338 C16.4084229,29.1379831 18.2760205,30.5980761 20.4887635,30.6381068 C18.7583217,31.9920683 16.5764023,32.7967448 14.2065185,32.7967448 C13.7981944,32.7967448 13.3959947,32.772123 13,32.7275059 C15.2389332,34.1630173 17.8969889,35 20.7538076,35 C30.0592792,35 35.1458041,27.3040157 35.1458041,20.6296782 L35.1288409,19.9757905 C36.1226957,19.2679922 36.9824973,18.3787081 37.658968,17.3663147 L37.658968,17.3663147 Z" fill="#FD5454"></path>
                    </g>
                    <g id="instagram" transform="translate(200.000000, 50.000000)" fill="#FFFFFF">
                        <rect id="bg" opacity="0" x="0" y="0" width="50" height="50"></rect>
                        <path d="M17.5670722,15 L32.4329278,15 C33.8447046,15 34.9997947,16.0452282 34.9997947,17.5668669 L34.9997947,32.4331331 C34.9997947,33.9547718 33.8447046,35 32.4329278,35 L17.5670722,35 C16.1548847,35 15,33.9547718 15,32.4331331 L15,17.5668669 C15,16.0452282 16.1548847,15 17.5670722,15 L17.5670722,15 L17.5670722,15 Z M29.5691257,17.2220853 C29.0738231,17.2220853 28.6690795,17.6340759 28.6690795,18.1382003 L28.6690795,20.3308176 C28.6690795,20.8347331 29.0738231,21.2469326 29.5691257,21.2469326 L31.8296114,21.2469326 C32.324914,21.2469326 32.7300683,20.8347331 32.7300683,20.3308176 L32.7300683,18.1382003 C32.7300683,17.6340759 32.324914,17.2220853 31.8296114,17.2220853 L29.5691257,17.2220853 L29.5691257,17.2220853 Z M32.7395143,23.4579291 L30.9792597,23.4579291 C31.145798,24.0016941 31.2359464,24.5776991 31.2359464,25.1736229 C31.2359464,28.5002824 28.4522306,31.19693 25.0189948,31.19693 C21.5859644,31.19693 18.8026593,28.5002824 18.8026593,25.1736229 C18.8026593,24.5772884 18.8926023,24.0014888 19.059346,23.4579291 L17.222496,23.4579291 L17.222496,31.9062067 C17.222496,32.3433955 17.5802146,32.7013194 18.0176087,32.7013194 L31.9448124,32.7013194 C32.3822065,32.7013194 32.739925,32.3436008 32.739925,31.9062067 L32.739925,23.4579291 L32.7395143,23.4579291 L32.7395143,23.4579291 Z M25.0187895,21.0645824 C22.8006058,21.0645824 21.0021562,22.8069716 21.0021562,24.9565686 C21.0021562,27.1061656 22.8006058,28.8485549 25.0187895,28.8485549 C27.2371785,28.8485549 29.0358335,27.1061656 29.0358335,24.9565686 C29.0358335,22.8069716 27.2373838,21.0645824 25.0187895,21.0645824 L25.0187895,21.0645824 Z"></path>
                    </g>
                    <g id="instagram_" transform="translate(200.000000, 100.000000)">
                        <rect id="bg" opacity="0" fill="#FFFFFF" x="0" y="0" width="50" height="50"></rect>
                        <path d="M17.5670722,15 L32.4329278,15 C33.8447046,15 34.9997947,16.0452282 34.9997947,17.5668669 L34.9997947,32.4331331 C34.9997947,33.9547718 33.8447046,35 32.4329278,35 L17.5670722,35 C16.1548847,35 15,33.9547718 15,32.4331331 L15,17.5668669 C15,16.0452282 16.1548847,15 17.5670722,15 L17.5670722,15 L17.5670722,15 Z M29.5691257,17.2220853 C29.0738231,17.2220853 28.6690795,17.6340759 28.6690795,18.1382003 L28.6690795,20.3308176 C28.6690795,20.8347331 29.0738231,21.2469326 29.5691257,21.2469326 L31.8296114,21.2469326 C32.324914,21.2469326 32.7300683,20.8347331 32.7300683,20.3308176 L32.7300683,18.1382003 C32.7300683,17.6340759 32.324914,17.2220853 31.8296114,17.2220853 L29.5691257,17.2220853 L29.5691257,17.2220853 Z M32.7395143,23.4579291 L30.9792597,23.4579291 C31.145798,24.0016941 31.2359464,24.5776991 31.2359464,25.1736229 C31.2359464,28.5002824 28.4522306,31.19693 25.0189948,31.19693 C21.5859644,31.19693 18.8026593,28.5002824 18.8026593,25.1736229 C18.8026593,24.5772884 18.8926023,24.0014888 19.059346,23.4579291 L17.222496,23.4579291 L17.222496,31.9062067 C17.222496,32.3433955 17.5802146,32.7013194 18.0176087,32.7013194 L31.9448124,32.7013194 C32.3822065,32.7013194 32.739925,32.3436008 32.739925,31.9062067 L32.739925,23.4579291 L32.7395143,23.4579291 L32.7395143,23.4579291 Z M25.0187895,21.0645824 C22.8006058,21.0645824 21.0021562,22.8069716 21.0021562,24.9565686 C21.0021562,27.1061656 22.8006058,28.8485549 25.0187895,28.8485549 C27.2371785,28.8485549 29.0358335,27.1061656 29.0358335,24.9565686 C29.0358335,22.8069716 27.2373838,21.0645824 25.0187895,21.0645824 L25.0187895,21.0645824 Z" fill="#FD5454"></path>
                    </g>
                    <g id="mouse" transform="translate(250.000000, 50.000000)">
                        <rect id="bg" opacity="0" fill="#FFFFFF" x="0" y="0" width="50" height="50"></rect>
                        <path d="M14,18.4965203 C14,12.7022163 18.9319743,8 25,8 C31.0763985,8 36,12.6961584 36,18.4965203 L36,31.5034797 C36,37.2977837 31.0680257,42 25,42 C18.9236015,42 14,37.3038416 14,31.5034797 L14,18.4965203 Z M16,18.4965203 L16,31.5034797 C16,36.2004793 20.0294373,40 25,40 C29.9604487,40 34,36.1959783 34,31.5034797 L34,18.4965203 C34,13.7995207 29.9705627,10 25,10 C20.0395513,10 16,13.8040217 16,18.4965203 Z M23,18.9981014 C23,17.8945804 23.8877296,17 25,17 C26.1045695,17 27,17.8867064 27,18.9981014 L27,23.0018986 C27,24.1054196 26.1122704,25 25,25 C23.8954305,25 23,24.1132936 23,23.0018986 L23,18.9981014 Z" fill="#000000"></path>
                    </g>
                    <g id="mouse_" transform="translate(250.000000, 100.000000)">
                        <rect id="bg" opacity="0" fill="#FFFFFF" x="0" y="0" width="50" height="50"></rect>
                        <path d="M14,18.4965203 C14,12.7022163 18.9319743,8 25,8 C31.0763985,8 36,12.6961584 36,18.4965203 L36,31.5034797 C36,37.2977837 31.0680257,42 25,42 C18.9236015,42 14,37.3038416 14,31.5034797 L14,18.4965203 Z M16,18.4965203 L16,31.5034797 C16,36.2004793 20.0294373,40 25,40 C29.9604487,40 34,36.1959783 34,31.5034797 L34,18.4965203 C34,13.7995207 29.9705627,10 25,10 C20.0395513,10 16,13.8040217 16,18.4965203 Z M23,18.9981014 C23,17.8945804 23.8877296,17 25,17 C26.1045695,17 27,17.8867064 27,18.9981014 L27,23.0018986 C27,24.1054196 26.1122704,25 25,25 C23.8954305,25 23,24.1132936 23,23.0018986 L23,18.9981014 Z" fill="#FD5454"></path>
                    </g>
                    <g id="arrow_down_touch" transform="translate(300.000000, 50.000000)">
                        <rect id="bg" opacity="0" fill="#FFFFFF" x="0" y="0" width="50" height="50"></rect>
                        <path d="M26.0179777,24.3221664 C26.0179777,24.3221664 25.490693,25 25.0310462,25 C24.5903089,25 24.0426601,24.3221664 24.0426601,24.3221664 L24.0332053,24.3119844 L19.2607332,18.9314984 C18.9130889,18.4907612 18.9130889,17.7700175 19.2607332,17.3300075 C19.6091048,16.8899975 20.1792995,16.8899975 20.5269438,17.3300075 L25.0303189,21.8348372 L29.5329667,17.3300075 C29.8820655,16.8899975 30.4508057,16.8899975 30.7999045,17.3300075 C31.1475488,17.7700175 31.1475488,18.4907612 30.7999045,18.9314984 L26.0274324,24.3119844 L26.0179777,24.3221664 L26.0179777,24.3221664 Z M26.0179777,33.3221664 C26.0179777,33.3221664 25.490693,34 25.0310462,34 C24.5903089,34 24.0426601,33.3221664 24.0426601,33.3221664 L24.0332053,33.3119844 L19.2607332,27.9314984 C18.9130889,27.4907612 18.9130889,26.7700175 19.2607332,26.3300075 C19.6091048,25.8899975 20.1792995,25.8899975 20.5269438,26.3300075 L25.0303189,30.8348372 L29.5329667,26.3300075 C29.8820655,25.8899975 30.4508057,25.8899975 30.7999045,26.3300075 C31.1475488,26.7700175 31.1475488,27.4907612 30.7999045,27.9314984 L26.0274324,33.3119844 L26.0179777,33.3221664 L26.0179777,33.3221664 Z" fill="#000000"></path>
                    </g>
                    <g id="arrow_down_touch_" transform="translate(300.000000, 100.000000)">
                        <rect id="bg" opacity="0" fill="#FFFFFF" x="0" y="0" width="50" height="50"></rect>
                        <path d="M26.0179777,24.3221664 C26.0179777,24.3221664 25.490693,25 25.0310462,25 C24.5903089,25 24.0426601,24.3221664 24.0426601,24.3221664 L24.0332053,24.3119844 L19.2607332,18.9314984 C18.9130889,18.4907612 18.9130889,17.7700175 19.2607332,17.3300075 C19.6091048,16.8899975 20.1792995,16.8899975 20.5269438,17.3300075 L25.0303189,21.8348372 L29.5329667,17.3300075 C29.8820655,16.8899975 30.4508057,16.8899975 30.7999045,17.3300075 C31.1475488,17.7700175 31.1475488,18.4907612 30.7999045,18.9314984 L26.0274324,24.3119844 L26.0179777,24.3221664 L26.0179777,24.3221664 Z M26.0179777,33.3221664 C26.0179777,33.3221664 25.490693,34 25.0310462,34 C24.5903089,34 24.0426601,33.3221664 24.0426601,33.3221664 L24.0332053,33.3119844 L19.2607332,27.9314984 C18.9130889,27.4907612 18.9130889,26.7700175 19.2607332,26.3300075 C19.6091048,25.8899975 20.1792995,25.8899975 20.5269438,26.3300075 L25.0303189,30.8348372 L29.5329667,26.3300075 C29.8820655,25.8899975 30.4508057,25.8899975 30.7999045,26.3300075 C31.1475488,26.7700175 31.1475488,27.4907612 30.7999045,27.9314984 L26.0274324,33.3119844 L26.0179777,33.3221664 L26.0179777,33.3221664 Z" fill="#FD5454"></path>
                    </g>
                    <g id="close" transform="translate(50.000000, 50.000000)" fill="#FFFFFF">
                        <rect id="bg" opacity="0" x="0" y="0" width="50" height="50"></rect>
                        <path d="M26.7885822,24.6672619 L36.3345238,34.2132034 L34.2132034,36.3345238 L24.6672619,26.7885822 L15.1213203,36.3345238 L13,34.2132034 L22.5459415,24.6672619 L13,15.1213203 L15.1213203,13 L24.6672619,22.5459415 L34.2132034,13 L36.3345238,15.1213203 L26.7885822,24.6672619 Z"></path>
                    </g>
                    <g id="close_" transform="translate(50.000000, 100.000000)">
                        <rect id="bg" opacity="0" fill="#FFFFFF" x="0" y="0" width="50" height="50"></rect>
                        <path d="M26.7885822,24.6672619 L36.3345238,34.2132034 L34.2132034,36.3345238 L24.6672619,26.7885822 L15.1213203,36.3345238 L13,34.2132034 L22.5459415,24.6672619 L13,15.1213203 L15.1213203,13 L24.6672619,22.5459415 L34.2132034,13 L36.3345238,15.1213203 L26.7885822,24.6672619 Z" fill="#FD5454"></path>
                    </g>
                    <g id="menu" transform="translate(0.000000, 50.000000)" fill="#FFFFFF">
                        <rect id="bg" opacity="0" x="0" y="0" width="50" height="50"></rect>
                        <path d="M13,14 L37,14 L37,17 L13,17 L13,14 Z M13,23.5 L37,23.5 L37,26.5 L13,26.5 L13,23.5 Z M13,32.5 L37,32.5 L37,35.5 L13,35.5 L13,32.5 Z"></path>
                    </g>
                    <g id="menu_" transform="translate(0.000000, 100.000000)">
                        <rect id="bg" opacity="0" fill="#FFFFFF" x="0" y="0" width="50" height="50"></rect>
                        <path d="M13,14 L37,14 L37,17 L13,17 L13,14 Z M13,23.5 L37,23.5 L37,26.5 L13,26.5 L13,23.5 Z M13,32.5 L37,32.5 L37,35.5 L13,35.5 L13,32.5 Z" fill="#FD5454"></path>
                    </g>
                    <g id="facebook" transform="translate(100.000000, 50.000000)" fill="#FFFFFF">
                        <rect id="bg" opacity="0" x="0" y="0" width="50" height="50"></rect>
                        <path d="M30.4058342,15.0041613 L27.8122822,15 C24.8985154,15 23.0155114,16.9318998 23.0155114,19.922027 L23.0155114,22.191411 L20.4078108,22.191411 C20.1824745,22.191411 20,22.3740936 20,22.5994299 L20,25.8875087 C20,26.112845 20.1826826,26.2953195 20.4078108,26.2953195 L23.0155114,26.2953195 L23.0155114,34.5921892 C23.0155114,34.8175255 23.1979859,35 23.4233222,35 L26.8256297,35 C27.0509659,35 27.2334405,34.8173174 27.2334405,34.5921892 L27.2334405,26.2953195 L30.2824506,26.2953195 C30.5077869,26.2953195 30.6902614,26.112845 30.6902614,25.8875087 L30.6915098,22.5994299 C30.6915098,22.4912352 30.64844,22.3876179 30.5720795,22.3110494 C30.495719,22.2344808 30.3916857,22.191411 30.2834909,22.191411 L27.2334405,22.191411 L27.2334405,20.2676259 C27.2334405,19.3429772 27.4537832,18.8735786 28.6582816,18.8735786 L30.4054181,18.8729544 C30.6305463,18.8729544 30.8130208,18.6902718 30.8130208,18.4651436 L30.8130208,15.4119722 C30.8130208,15.187052 30.6307543,15.0045775 30.4058342,15.0041613 L30.4058342,15.0041613 Z"></path>
                    </g>
                    <g id="facebook_" transform="translate(100.000000, 100.000000)">
                        <rect id="bg" opacity="0" fill="#FFFFFF" x="0" y="0" width="50" height="50"></rect>
                        <path d="M30.4058342,15.0041613 L27.8122822,15 C24.8985154,15 23.0155114,16.9318998 23.0155114,19.922027 L23.0155114,22.191411 L20.4078108,22.191411 C20.1824745,22.191411 20,22.3740936 20,22.5994299 L20,25.8875087 C20,26.112845 20.1826826,26.2953195 20.4078108,26.2953195 L23.0155114,26.2953195 L23.0155114,34.5921892 C23.0155114,34.8175255 23.1979859,35 23.4233222,35 L26.8256297,35 C27.0509659,35 27.2334405,34.8173174 27.2334405,34.5921892 L27.2334405,26.2953195 L30.2824506,26.2953195 C30.5077869,26.2953195 30.6902614,26.112845 30.6902614,25.8875087 L30.6915098,22.5994299 C30.6915098,22.4912352 30.64844,22.3876179 30.5720795,22.3110494 C30.495719,22.2344808 30.3916857,22.191411 30.2834909,22.191411 L27.2334405,22.191411 L27.2334405,20.2676259 C27.2334405,19.3429772 27.4537832,18.8735786 28.6582816,18.8735786 L30.4054181,18.8729544 C30.6305463,18.8729544 30.8130208,18.6902718 30.8130208,18.4651436 L30.8130208,15.4119722 C30.8130208,15.187052 30.6307543,15.0045775 30.4058342,15.0041613 L30.4058342,15.0041613 Z" fill="#FD5454"></path>
                    </g>
                    <g id="error" transform="translate(200.000000, 0.000000)" fill="#FFFFFF">
                        <rect id="bg" opacity="0" x="0" y="0" width="50" height="50"></rect>
                        <path d="M26.97,18 L26.97,23.4824281 C26.97,24.0702905 26.9324486,24.6533517 26.8573448,25.2316294 C26.782241,25.809907 26.683242,26.399358 26.5603448,27 L24.4096552,27 C24.286758,26.399358 24.187759,25.809907 24.1126552,25.2316294 C24.0375513,24.6533517 24,24.0702905 24,23.4824281 L24,18 L26.97,18 Z M24,30.5 C24,30.2894726 24.0383519,30.0935682 24.1150568,29.9122807 C24.1917617,29.7309932 24.2968743,29.5731001 24.4303977,29.4385965 C24.5639211,29.3040929 24.72159,29.1973688 24.9034091,29.1184211 C25.0852282,29.0394733 25.2840898,29 25.5,29 C25.7102283,29 25.9062491,29.0394733 26.0880682,29.1184211 C26.2698873,29.1973688 26.4289766,29.3040929 26.5653409,29.4385965 C26.7017052,29.5731001 26.8082383,29.7309932 26.8849432,29.9122807 C26.9616481,30.0935682 27,30.2894726 27,30.5 C27,30.7105274 26.9616481,30.9078938 26.8849432,31.0921053 C26.8082383,31.2763167 26.7017052,31.4356718 26.5653409,31.5701754 C26.4289766,31.704679 26.2698873,31.8099411 26.0880682,31.8859649 C25.9062491,31.9619887 25.7102283,32 25.5,32 C25.2840898,32 25.0852282,31.9619887 24.9034091,31.8859649 C24.72159,31.8099411 24.5639211,31.704679 24.4303977,31.5701754 C24.2968743,31.4356718 24.1917617,31.2763167 24.1150568,31.0921053 C24.0383519,30.9078938 24,30.7105274 24,30.5 L24,30.5 Z"></path>
                    </g>
                    <g id="arrow_right" transform="translate(100.000000, 0.000000)" fill="#FFFFFF">
                        <rect id="bg" opacity="0" x="0" y="0" width="50" height="50"></rect>
                        <path d="M28.3221664,26.0179777 C28.3221664,26.0179777 29,25.490693 29,25.0310462 C29,24.5903089 28.3221664,24.0426601 28.3221664,24.0426601 L28.3119844,24.0332053 L22.9314984,19.2607332 C22.4907612,18.9130889 21.7700175,18.9130889 21.3300075,19.2607332 C20.8899975,19.6091048 20.8899975,20.1792995 21.3300075,20.5269438 L25.8348372,25.0303189 L21.3300075,29.5329667 C20.8899975,29.8820655 20.8899975,30.4508057 21.3300075,30.7999045 C21.7700175,31.1475488 22.4907612,31.1475488 22.9314984,30.7999045 L28.3119844,26.0274324 L28.3221664,26.0179777"></path>
                    </g>
                    <g id="arrow_down" transform="translate(150.000000, 0.000000)" fill="#FFFFFF">
                        <rect id="bg" opacity="0" x="0" y="0" width="50" height="50"></rect>
                        <path d="M24.0426601,28.3221664 C24.0426601,28.3221664 24.5699448,29 25.0295916,29 C25.4703289,29 26.0179777,28.3221664 26.0179777,28.3221664 L26.0274324,28.3119844 L30.7999045,22.9314984 C31.1475488,22.4907612 31.1475488,21.7700175 30.7999045,21.3300075 C30.451533,20.8899975 29.8813382,20.8899975 29.5336939,21.3300075 L25.0303189,25.8348372 L20.5276711,21.3300075 C20.1785722,20.8899975 19.609832,20.8899975 19.2607332,21.3300075 C18.9130889,21.7700175 18.9130889,22.4907612 19.2607332,22.9314984 L24.0332053,28.3119844 L24.0426601,28.3221664"></path>
                    </g>
                    <g id="Check-Icon" transform="translate(250.000000, 0.000000)" fill="#FFFFFF">
                        <rect id="bg" opacity="0" x="0" y="0" width="50" height="50"></rect>
                        <path d="M22.1542419,31.5877433 L22.2612918,31.6947932 L34,19.956085 L32.043915,18 L21.976404,28.0675109 L17.956085,24.0471919 L16,26.0032769 L21.8693541,31.872631 L22.1542419,31.5877433 Z"></path>
                    </g>
                    <g id="arrow_left" transform="translate(50.000000, 0.000000)" fill="#FFFFFF">
                        <rect id="bg" opacity="0" x="0" y="0" width="50" height="50"></rect>
                        <path d="M28.3221664,26.0179777 C28.3221664,26.0179777 29,25.490693 29,25.0310462 C29,24.5903089 28.3221664,24.0426601 28.3221664,24.0426601 L28.3119844,24.0332053 L22.9314984,19.2607332 C22.4907612,18.9130889 21.7700175,18.9130889 21.3300075,19.2607332 C20.8899975,19.6091048 20.8899975,20.1792995 21.3300075,20.5269438 L25.8348372,25.0303189 L21.3300075,29.5329667 C20.8899975,29.8820655 20.8899975,30.4508057 21.3300075,30.7999045 C21.7700175,31.1475488 22.4907612,31.1475488 22.9314984,30.7999045 L28.3119844,26.0274324 L28.3221664,26.0179777" transform="translate(25.000000, 25.030319) scale(-1, 1) translate(-25.000000, -25.030319) "></path>
                    </g>
                    <g id="Logo" fill="#FFFFFF">
                        <rect id="bg" opacity="0" x="0" y="0" width="50" height="50"></rect>
                        <path d="M15.3993966,41 L9,34.6012068 L34.6006034,9 L41,15.4018101 L15.3993966,41"></path>
                    </g>
                    <g id="Check-Icon" transform="translate(300.000000, 0.000000)">
                        <rect id="bg" opacity="0" fill="#FFFFFF" x="0" y="0" width="50" height="50"></rect>
                        <path d="M20.5401796,33.8048859 L20.6829128,33.9476191 L36.3345238,18.2960082 L33.7264104,15.6878948 L20.3030625,29.1112428 L14.9426371,23.7508174 L12.3345238,26.3589307 L20.1603292,34.1847362 L20.5401796,33.8048859 Z" fill="#7BDB4C"></path>
                    </g>
                </g>
            </g>
        </g>
    </g>
</svg>